<?xml version="1.0" encoding="UTF-8" standalone="no"?>
<svg
   id="Calque_2"
   viewBox="0 0 482.31224 455.25635"
   version="1.1"
   sodipodi:docname="AE simplified.svg"
   width="482.31226"
   height="455.25635"
   inkscape:version="1.4 (86a8ad7, 2024-10-11)"
   inkscape:export-filename="ae etoiles.png"
   inkscape:export-xdpi="96"
   inkscape:export-ydpi="96"
   xmlns:inkscape="http://www.inkscape.org/namespaces/inkscape"
   xmlns:sodipodi="http://sodipodi.sourceforge.net/DTD/sodipodi-0.dtd"
   xmlns="http://www.w3.org/2000/svg"
   xmlns:svg="http://www.w3.org/2000/svg">
  <sodipodi:namedview
     id="namedview73"
     pagecolor="#505050"
     bordercolor="#ffffff"
     borderopacity="1"
     inkscape:showpageshadow="0"
     inkscape:pageopacity="0"
     inkscape:pagecheckerboard="1"
     inkscape:deskcolor="#505050"
     inkscape:zoom="3.0254897"
     inkscape:cx="251.69479"
     inkscape:cy="138.98577"
     inkscape:window-width="1920"
     inkscape:window-height="1001"
     inkscape:window-x="-9"
     inkscape:window-y="-9"
     inkscape:window-maximized="1"
     inkscape:current-layer="layer1" />
  <defs
     id="defs1">
    <style
       id="style1">.cls-1{clip-path:url(#clippath);}.cls-2{fill:#fff;}</style>
    <clipPath
       id="clippath">
      <path
         class="cls-2"
         d="m 63.68,178.28 c 0,57.52 47.37,104.17 105.8,104.17 v 0 c 25.09,0 48.14,-8.63 66.27,-23 v 0 19.39 h 39.3 v -93.91 c 0.14,-2.2 0.24,-4.42 0.24,-6.65 v 0 c 0,-2.24 -0.1,-4.45 -0.24,-6.65 v 0 -90.86 h -39.3 V 97.1 c -18.13,-14.38 -41.18,-23 -66.27,-23 v 0 c -58.43,0 -105.8,46.65 -105.8,104.18 m 43.68,0 c 0,-33.78 27.82,-61.16 62.12,-61.16 v 0 c 34.31,0 62.12,27.38 62.12,61.16 v 0 c 0,33.78 -27.81,61.16 -62.12,61.16 v 0 c -34.3,0 -62.12,-27.38 -62.12,-61.16"
         id="path1" />
    </clipPath>
  </defs>
  <g
     id="svg2816"
     inkscape:highlight-color="#00dcea"
     transform="matrix(0.52434732,0,0,0.52434732,113.29678,37.112931)"
     style="fill:#000000;fill-opacity:1">
    <g
       id="g73"
       style="fill:#000000;fill-opacity:1"
       inkscape:label="tout mais dans un sous dossier">
      <g
         id="g6173"
         style="fill:#000000;fill-opacity:1;display:inline"
         inkscape:label="logo">
        <g
           id="g6575"
           style="display:inline;fill:#000000;fill-opacity:1"
           inkscape:label="lettres">
          <path
             id="path2838"
             class="cls-2"
             d="m 346.29,155.34 c 5.61,-12.11 11.72,-20.57 18.31,-25.37 10.5,-7.67 22.7,-11.52 36.62,-11.52 12.82,0 24.08,3.42 33.79,10.26 9.7,6.83 16.2,15.72 19.5,26.63 H 346.3 Z m 158.11,38.7 0.19,-9.36 c 0,-32.39 -9.82,-58.46 -29.43,-78.19 -19.61,-19.74 -45.09,-29.61 -76.4,-29.61 -29.49,0 -54.01,9.87 -73.57,29.61 -13.68,13.8 -22.56,30.09 -26.67,48.86 h -23.46 v 38.7 h 21.51 c 2.56,23.37 12.11,43.27 28.71,59.66 19.62,19.37 45.02,29.06 76.22,29.06 20.1,0 37.47,-3.51 52.1,-10.53 14.62,-7.03 27.16,-17.84 37.64,-32.49 L 449.2,220.32 c -13.4,12.85 -29.43,19.26 -48.08,19.26 -15.59,0 -28.43,-4.11 -38.47,-12.32 -10.05,-8.22 -16.24,-19.29 -18.55,-33.2 h 160.31 z"
             style="fill:#000000;fill-opacity:1;display:inline"
             inkscape:label="E" />
          <path
             class="cls-2"
             d="m 63.68,178.28 c 0,57.52 47.37,104.17 105.8,104.17 v 0 c 25.09,0 48.14,-8.63 66.27,-23 v 0 19.39 h 39.3 v -93.91 c 0.14,-2.2 0.24,-4.42 0.24,-6.65 v 0 c 0,-2.24 -0.1,-4.45 -0.24,-6.65 v 0 -90.86 h -39.3 V 97.1 c -18.13,-14.38 -41.18,-23 -66.27,-23 v 0 c -58.43,0 -105.8,46.65 -105.8,104.18 m 43.68,0 c 0,-33.78 27.82,-61.16 62.12,-61.16 v 0 c 34.31,0 62.12,27.38 62.12,61.16 v 0 c 0,33.78 -27.81,61.16 -62.12,61.16 v 0 c -34.3,0 -62.12,-27.38 -62.12,-61.16"
             id="path2"
             style="fill:#000000;fill-opacity:1;display:inline"
             inkscape:label="A complet" />
          <path
             id="path2842"
             class="cls-2"
             d="m 169.49,239.44 c -34.31,0 -62.12,-27.38 -62.12,-61.17 0,-33.79 27.81,-61.15 62.12,-61.15 34.31,0 62.12,27.38 62.12,61.15 0,33.77 -27.81,61.17 -62.12,61.17 M 275.3,178.27 c 0,-2.23 -0.1,-4.44 -0.24,-6.64 V 80.77 h -39.3 V 97.09 C 217.62,82.72 194.58,74.1 169.49,74.1 c -58.44,0 -105.81,46.64 -105.81,104.16 0,57.52 47.37,104.18 105.81,104.18 25.09,0 48.13,-8.62 66.27,-23 v 19.39 h 39.3 v -93.91 c 0.14,-2.21 0.24,-4.42 0.24,-6.66"
             style="fill:#000000;fill-opacity:1;display:none"
             inkscape:label="A points" />
        </g>
        <g
           id="g2840"
           style="display:none;fill:#000000;fill-opacity:1"
           inkscape:label="points">
          <path
             id="path3894"
             class="cls-2"
             d="m 287.61,11.84 c -1,-5.46 2.68,-10.69 8.23,-11.68 5.55,-0.98 10.85,2.64 11.85,8.1 1.01,5.46 -2.67,10.68 -8.22,11.68 -5.54,0.98 -10.85,-2.64 -11.86,-8.1"
             style="display:inline;fill:#000000;fill-opacity:1" />
          <path
             id="path3898"
             class="cls-2"
             d="m 0.16,194.18 c -1,-5.45 2.68,-10.68 8.23,-11.67 5.55,-0.99 10.85,2.64 11.86,8.1 1,5.46 -2.68,10.69 -8.23,11.67 -5.54,0.99 -10.85,-2.64 -11.86,-8.1"
             style="display:inline;fill:#000000;fill-opacity:1" />
          <path
             id="path3878"
             class="cls-2"
             d="m 37.17,222.33 c -1,-5.46 2.68,-10.69 8.22,-11.68 5.55,-0.98 10.86,2.64 11.86,8.1 1,5.46 -2.68,10.68 -8.23,11.67 -5.55,0.99 -10.85,-2.64 -11.86,-8.1"
             style="display:inline;fill:#000000;fill-opacity:1" />
          <path
             id="path3890"
             class="cls-2"
             d="m 305.12,56.81 c -1,-5.46 2.67,-10.68 8.23,-11.67 5.55,-0.99 10.85,2.64 11.86,8.1 1,5.46 -2.68,10.69 -8.23,11.67 -5.55,0.98 -10.86,-2.64 -11.86,-8.1"
             style="display:inline;fill:#000000;fill-opacity:1" />
          <path
             id="path3858"
             class="cls-2"
             d="m 89.78,56.81 c -1,-5.46 2.68,-10.68 8.23,-11.67 5.55,-0.99 10.85,2.64 11.86,8.1 1,5.45 -2.68,10.68 -8.23,11.68 -5.55,0.98 -10.85,-2.65 -11.86,-8.11"
             style="display:inline;fill:#000000;fill-opacity:1" />
          <path
             id="path3850"
             class="cls-2"
             d="m 257.51,193.65 c -1.01,-5.47 2.68,-10.69 8.22,-11.68 5.55,-0.98 10.86,2.64 11.86,8.1 1.01,5.46 -2.68,10.68 -8.23,11.68 -5.54,0.98 -10.85,-2.64 -11.85,-8.1"
             style="display:inline;fill:#000000;fill-opacity:1" />
          <path
             id="path3862"
             class="cls-2"
             d="m 213.47,294.59 c -1,-5.46 2.68,-10.68 8.23,-11.68 5.55,-0.99 10.85,2.64 11.86,8.1 1,5.46 -2.68,10.69 -8.23,11.68 -5.55,0.98 -10.85,-2.63 -11.86,-8.1"
             style="display:inline;fill:#000000;fill-opacity:1" />
          <path
             id="path3866"
             class="cls-2"
             d="m 287.13,110.18 c -1,-5.46 2.68,-10.68 8.23,-11.67 5.55,-0.99 10.85,2.64 11.86,8.1 1,5.46 -2.68,10.69 -8.23,11.67 -5.55,0.99 -10.85,-2.64 -11.86,-8.1"
             style="display:inline;fill:#000000;fill-opacity:1" />
          <path
             id="path3882"
             class="cls-2"
             d="m 254.16,46.77 c -1,-5.47 2.68,-10.69 8.22,-11.68 5.55,-0.98 10.85,2.64 11.86,8.1 1,5.46 -2.68,10.68 -8.23,11.67 -5.55,0.99 -10.85,-2.64 -11.85,-8.1"
             style="display:inline;fill:#000000;fill-opacity:1" />
          <path
             id="path3886"
             class="cls-2"
             d="m 290.18,262.46 c -1,-5.46 2.68,-10.68 8.23,-11.67 5.55,-0.99 10.85,2.64 11.86,8.09 1,5.47 -2.68,10.7 -8.23,11.68 -5.55,0.99 -10.85,-2.64 -11.86,-8.1"
             style="display:inline;fill:#000000;fill-opacity:1" />
          <path
             id="path3934"
             class="cls-2"
             d="m 40.16,267.18 c -1,-5.46 2.68,-10.68 8.23,-11.68 5.55,-0.99 10.85,2.64 11.86,8.11 1,5.45 -2.68,10.68 -8.23,11.67 -5.54,0.97 -10.85,-2.64 -11.86,-8.11"
             style="display:inline;fill:#000000;fill-opacity:1"
             inkscape:label="path3934" />
        </g>
      </g>
      <g
         inkscape:groupmode="layer"
         id="layer1"
         inkscape:label="etoiles points">
        <path
           style="fill:#000000;fill-opacity:1;display:inline;stroke:#000000;stroke-width:1.90713;stroke-linejoin:round;stroke-dasharray:none;stroke-dashoffset:3.77953;stroke-opacity:1"
           d="M 99.844045,29.262546 C 101.96666,40.893454 102.61585,51.542724 117.52568,54.218931 102.21175,56.035735 102.63232,64.289065 99.920532,77.058104 97.293973,64.370239 96.114957,56.697782 81.608548,53.884635 95.935537,51.242216 97.985776,41.02405 99.844045,29.262546 Z"
           id="path73"
           sodipodi:nodetypes="ccccc"
           inkscape:label="etoile1" />
        <path
           style="display:inline;fill:#000000;fill-opacity:1;stroke:#000000;stroke-width:1.34527;stroke-linejoin:round;stroke-dasharray:none;stroke-dashoffset:3.77953;stroke-opacity:1"
           d="m 47.538961,202.54724 c 1.497263,8.2043 1.955193,15.71616 12.472404,17.60393 -10.802258,1.28154 -10.505593,7.10334 -12.418456,16.11046 -1.852743,-8.94985 -2.684402,-14.36191 -12.917045,-16.34627 10.106082,-1.86394 11.552296,-9.0717 12.863097,-17.36812 z"
           id="path73-9"
           sodipodi:nodetypes="ccccc"
           inkscape:label="etoile1" />
        <path
           style="display:inline;fill:#000000;fill-opacity:1;stroke:#000000;stroke-width:1.90713;stroke-linejoin:round;stroke-dasharray:none;stroke-dashoffset:3.77953;stroke-opacity:1"
           d="m 10.679914,168.32428 c 2.122615,11.6309 2.771805,22.28017 17.681635,24.95638 -15.31393,1.81681 -14.89336,10.07013 -17.605148,22.83917 C 8.1298419,203.43197 6.9508259,195.75951 -7.5555831,192.94636 6.7714059,190.30395 8.8216449,180.08578 10.679914,168.32428 Z"
           id="path73-8"
           sodipodi:nodetypes="ccccc"
           inkscape:label="etoile1" />
        <path
           style="display:inline;fill:#000000;fill-opacity:1;stroke:#000000;stroke-width:1.63348;stroke-linejoin:round;stroke-dasharray:none;stroke-dashoffset:3.77953;stroke-opacity:1"
           d="m 52.192502,243.11374 c 1.818043,9.96199 2.374082,19.08321 15.144519,21.37542 -13.116553,1.55611 -12.75633,8.62518 -15.079007,19.562 -2.249678,-10.86729 -3.259518,-17.43884 -15.684421,-19.84834 12.271228,-2.26325 14.02728,-11.01523 15.618909,-21.08908 z"
           id="path73-2"
           sodipodi:nodetypes="ccccc"
           inkscape:label="etoile1" />
        <path
           style="display:inline;fill:#000000;fill-opacity:1;stroke:#000000;stroke-width:1.18879;stroke-linejoin:round;stroke-dasharray:none;stroke-dashoffset:3.77953;stroke-opacity:1"
           d="m 223.11606,277.08106 c 1.32312,7.25003 1.72778,13.88817 11.02171,15.55636 -9.54582,1.1325 -9.28366,6.27714 -10.97403,14.23662 -1.63725,-7.90888 -2.37217,-12.69145 -11.41463,-14.44499 8.93061,-1.64714 10.20862,-8.01655 11.36695,-15.34799 z"
           id="path73-5"
           sodipodi:nodetypes="ccccc"
           inkscape:label="etoile1" />
        <path
           style="display:inline;fill:#000000;fill-opacity:1;stroke:#000000;stroke-width:1.50259;stroke-linejoin:round;stroke-dasharray:none;stroke-dashoffset:3.77953;stroke-opacity:1"
           d="m 301.00223,242.23601 c 1.67237,9.16374 2.18385,17.55408 13.93099,19.66261 -12.06552,1.43142 -11.73416,7.93404 -13.87073,17.9945 -2.06941,-9.9965 -2.99833,-16.04147 -14.42762,-18.25788 11.28793,-2.08191 12.90327,-10.13259 14.36736,-19.39923 z"
           id="path73-1"
           sodipodi:nodetypes="ccccc"
           inkscape:label="etoile1" />
        <path
           style="display:inline;fill:#000000;fill-opacity:1;stroke:#000000;stroke-width:1.90713;stroke-linejoin:round;stroke-dasharray:none;stroke-dashoffset:3.77953;stroke-opacity:1"
           d="m 314.87856,31.595274 c 2.12262,11.630908 2.77181,22.280178 17.68164,24.956385 -15.31393,1.816804 -14.89336,10.070134 -17.60515,22.839173 -2.62656,-12.687865 -3.80557,-20.360322 -18.31198,-23.173469 14.32699,-2.642419 16.37723,-12.860585 18.23549,-24.622089 z"
           id="path73-11"
           sodipodi:nodetypes="ccccc"
           inkscape:label="etoile1" />
        <path
           style="display:inline;fill:#000000;fill-opacity:1;stroke:#000000;stroke-width:1.39022;stroke-linejoin:round;stroke-dasharray:none;stroke-dashoffset:3.77953;stroke-opacity:1"
           d="m 296.54689,90.944839 c 1.54729,8.478429 2.02053,16.241281 12.88915,18.192121 -11.1632,1.32437 -10.85662,7.34069 -12.8334,16.64877 -1.91464,-9.2489 -2.77409,-14.84179 -13.34863,-16.89246 10.44375,-1.9262 11.93829,-9.374802 13.29288,-17.948431 z"
           id="path73-27"
           sodipodi:nodetypes="ccccc"
           inkscape:label="etoile1" />
        <path
           style="display:inline;fill:#000000;fill-opacity:1;stroke:#000000;stroke-width:1.52506;stroke-linejoin:round;stroke-dasharray:none;stroke-dashoffset:3.77953;stroke-opacity:1"
           d="m 263.34876,27.346555 c 1.69738,9.300814 2.21651,17.816647 14.13936,19.956713 -12.24599,1.452832 -11.90968,8.052719 -14.0782,18.263655 -2.10036,-10.146024 -3.04317,-16.281409 -14.64342,-18.53098 11.45677,-2.113046 13.09627,-10.284142 14.58226,-19.689388 z"
           id="path73-14"
           sodipodi:nodetypes="ccccc"
           inkscape:label="etoile1" />
        <path
           style="display:inline;fill:#000000;fill-opacity:1;stroke:#000000;stroke-width:1.79476;stroke-linejoin:round;stroke-dasharray:none;stroke-dashoffset:3.77953;stroke-opacity:1"
           d="m 295.9334,-12.66837 c 1.99755,10.9455866 2.60849,20.9673753 16.63979,23.485894 -14.41159,1.709753 -14.0158,9.476776 -16.56781,21.493432 -2.4718,-11.940265 -3.58134,-19.160641 -17.23299,-21.808031 13.48281,-2.486721 15.41224,-12.1028075 17.16101,-23.171295 z"
           id="path73-3"
           sodipodi:nodetypes="ccccc"
           inkscape:label="etoile1" />
      </g>
      <g
         id="g49"
         style="display:inline;fill:#000000;fill-opacity:1"
         inkscape:label="de l'université">
        <path
           class="cls-2"
           d="m 22.73,343.26 h 2.35 v 17.29 h -2.35 v -1.04 c -0.92,0.89 -1.97,1.33 -3.13,1.33 -1.39,0 -2.54,-0.5 -3.45,-1.49 -0.91,-1.02 -1.36,-2.29 -1.36,-3.81 0,-1.52 0.45,-2.73 1.36,-3.73 0.9,-1 2.03,-1.5 3.4,-1.5 1.19,0 2.25,0.48 3.18,1.43 z m -5.55,12.28 c 0,0.96 0.26,1.73 0.78,2.33 0.53,0.61 1.21,0.91 2.02,0.91 0.87,0 1.57,-0.29 2.1,-0.88 0.53,-0.61 0.8,-1.38 0.8,-2.31 0,-0.93 -0.27,-1.71 -0.8,-2.31 -0.53,-0.59 -1.23,-0.89 -2.08,-0.89 -0.8,0 -1.48,0.3 -2.02,0.9 -0.53,0.61 -0.8,1.36 -0.8,2.25 z"
           id="path3"
           style="fill:#000000;fill-opacity:1" />
        <path
           class="cls-2"
           d="M 37.26,356.11 H 30 c 0.06,0.82 0.33,1.47 0.81,1.96 0.48,0.48 1.09,0.72 1.84,0.72 0.58,0 1.06,-0.14 1.45,-0.41 0.37,-0.27 0.8,-0.78 1.28,-1.52 l 1.98,1.08 c -0.31,0.51 -0.63,0.95 -0.97,1.32 -0.34,0.37 -0.7,0.67 -1.09,0.9 -0.39,0.24 -0.81,0.41 -1.26,0.52 -0.45,0.11 -0.94,0.16 -1.47,0.16 -1.51,0 -2.72,-0.48 -3.64,-1.43 -0.92,-0.96 -1.37,-2.24 -1.37,-3.83 0,-1.59 0.44,-2.85 1.33,-3.83 0.89,-0.96 2.08,-1.44 3.56,-1.44 1.48,0 2.67,0.47 3.54,1.4 0.86,0.93 1.29,2.21 1.29,3.86 v 0.54 z m -2.41,-1.88 c -0.33,-1.23 -1.11,-1.84 -2.36,-1.84 -0.28,0 -0.55,0.04 -0.8,0.13 -0.25,0.09 -0.48,0.21 -0.68,0.37 -0.2,0.16 -0.38,0.35 -0.53,0.58 -0.15,0.22 -0.26,0.48 -0.33,0.77 h 4.7 z"
           id="path4"
           style="fill:#000000;fill-opacity:1" />
        <path
           class="cls-2"
           d="m 48.73,343.26 v 17.29 h -2.34 v -17.29 z"
           id="path5"
           style="fill:#000000;fill-opacity:1" />
        <path
           class="cls-2"
           d="m 53.89,344.05 2.08,0.8 -2.96,5.86 -1.58,-0.65 z"
           id="path6"
           style="fill:#000000;fill-opacity:1" />
        <path
           class="cls-2"
           d="m 61.52,344.74 v 9.52 c 0,1.36 0.23,2.35 0.68,2.98 0.67,0.91 1.62,1.36 2.84,1.36 1.22,0 2.18,-0.45 2.85,-1.36 0.45,-0.61 0.68,-1.6 0.68,-2.98 v -9.52 h 2.42 v 10.18 c 0,1.67 -0.53,3.04 -1.58,4.12 -1.19,1.2 -2.64,1.8 -4.37,1.8 -1.73,0 -3.18,-0.6 -4.36,-1.8 -1.05,-1.08 -1.58,-2.45 -1.58,-4.12 v -10.18 z"
           id="path7"
           style="fill:#000000;fill-opacity:1" />
        <path
           class="cls-2"
           d="m 74.53,350.58 h 2.35 v 0.92 c 0.82,-0.8 1.74,-1.2 2.77,-1.2 1.18,0 2.1,0.36 2.76,1.1 0.57,0.62 0.85,1.63 0.85,3.04 v 6.11 h -2.35 v -5.57 c 0,-0.98 -0.14,-1.66 -0.42,-2.04 -0.27,-0.38 -0.76,-0.57 -1.48,-0.57 -0.78,0 -1.33,0.25 -1.65,0.76 -0.32,0.5 -0.48,1.37 -0.48,2.61 v 4.81 h -2.35 z"
           id="path8"
           style="fill:#000000;fill-opacity:1" />
        <path
           class="cls-2"
           d="m 85.86,346.43 c 0,-0.4 0.15,-0.75 0.45,-1.04 0.3,-0.29 0.66,-0.44 1.07,-0.44 0.41,0 0.78,0.15 1.08,0.44 0.3,0.29 0.45,0.64 0.45,1.05 0,0.41 -0.15,0.77 -0.45,1.06 -0.29,0.29 -0.65,0.44 -1.07,0.44 -0.42,0 -0.78,-0.15 -1.08,-0.44 -0.3,-0.29 -0.45,-0.65 -0.45,-1.08 z m 2.69,4.15 v 9.97 h -2.34 v -9.97 z"
           id="path9"
           style="fill:#000000;fill-opacity:1" />
        <path
           class="cls-2"
           d="m 92.77,350.58 2.62,5.6 2.61,-5.6 h 2.63 l -5.26,10.66 -5.22,-10.66 z"
           id="path10"
           style="fill:#000000;fill-opacity:1" />
        <path
           class="cls-2"
           d="m 111.07,356.11 h -7.26 c 0.06,0.82 0.33,1.47 0.81,1.96 0.48,0.48 1.09,0.72 1.84,0.72 0.58,0 1.06,-0.14 1.45,-0.41 0.37,-0.27 0.8,-0.78 1.28,-1.52 l 1.98,1.08 c -0.31,0.51 -0.63,0.95 -0.97,1.32 -0.34,0.37 -0.7,0.67 -1.09,0.9 -0.39,0.24 -0.81,0.41 -1.26,0.52 -0.45,0.11 -0.94,0.16 -1.47,0.16 -1.51,0 -2.72,-0.48 -3.64,-1.43 -0.92,-0.96 -1.37,-2.24 -1.37,-3.83 0,-1.59 0.44,-2.85 1.33,-3.83 0.89,-0.96 2.08,-1.44 3.56,-1.44 1.48,0 2.67,0.47 3.54,1.4 0.86,0.93 1.29,2.21 1.29,3.86 v 0.54 z m -2.41,-1.88 c -0.33,-1.23 -1.11,-1.84 -2.36,-1.84 -0.28,0 -0.55,0.04 -0.8,0.13 -0.25,0.09 -0.48,0.21 -0.68,0.37 -0.2,0.16 -0.38,0.35 -0.53,0.58 -0.15,0.22 -0.26,0.48 -0.33,0.77 h 4.7 z"
           id="path11"
           style="fill:#000000;fill-opacity:1" />
        <path
           class="cls-2"
           d="m 113.63,350.58 h 2.34 v 0.89 c 0.43,-0.44 0.81,-0.75 1.14,-0.91 0.34,-0.17 0.74,-0.26 1.21,-0.26 0.62,0 1.26,0.2 1.93,0.59 l -1.07,2.11 c -0.44,-0.31 -0.88,-0.47 -1.3,-0.47 -1.28,0 -1.91,0.95 -1.91,2.85 v 5.17 h -2.34 z"
           id="path12"
           style="fill:#000000;fill-opacity:1" />
        <path
           class="cls-2"
           d="m 127.48,352.28 -1.93,1.01 c -0.31,-0.61 -0.68,-0.92 -1.13,-0.92 -0.21,0 -0.4,0.07 -0.55,0.21 -0.15,0.14 -0.23,0.32 -0.23,0.54 0,0.38 0.45,0.76 1.35,1.14 1.24,0.53 2.08,1.01 2.51,1.45 0.43,0.44 0.64,1.04 0.64,1.79 0,0.96 -0.36,1.77 -1.08,2.42 -0.7,0.61 -1.55,0.92 -2.54,0.92 -1.7,0 -2.9,-0.82 -3.61,-2.45 l 2,-0.91 c 0.28,0.48 0.49,0.78 0.63,0.91 0.28,0.26 0.62,0.39 1.02,0.39 0.79,0 1.19,-0.36 1.19,-1.06 0,-0.41 -0.31,-0.79 -0.91,-1.15 -0.24,-0.12 -0.47,-0.23 -0.71,-0.34 -0.24,-0.11 -0.48,-0.22 -0.72,-0.34 -0.68,-0.33 -1.16,-0.66 -1.44,-0.98 -0.35,-0.42 -0.53,-0.95 -0.53,-1.61 0,-0.87 0.3,-1.58 0.9,-2.15 0.62,-0.57 1.37,-0.85 2.25,-0.85 1.3,0 2.26,0.66 2.89,1.98 z"
           id="path13"
           style="fill:#000000;fill-opacity:1" />
        <path
           class="cls-2"
           d="m 129.89,346.43 c 0,-0.4 0.15,-0.75 0.45,-1.04 0.3,-0.29 0.66,-0.44 1.07,-0.44 0.41,0 0.78,0.15 1.08,0.44 0.3,0.29 0.45,0.64 0.45,1.05 0,0.41 -0.15,0.77 -0.45,1.06 -0.29,0.29 -0.65,0.44 -1.07,0.44 -0.42,0 -0.78,-0.15 -1.08,-0.44 -0.3,-0.29 -0.45,-0.65 -0.45,-1.08 z m 2.69,4.15 v 9.97 h -2.34 v -9.97 z"
           id="path14"
           style="fill:#000000;fill-opacity:1" />
        <path
           class="cls-2"
           d="m 137.96,352.73 v 7.82 h -2.34 v -7.82 h -1 v -2.15 h 1 v -3.66 h 2.34 v 3.66 h 1.82 v 2.15 z"
           id="path15"
           style="fill:#000000;fill-opacity:1" />
        <path
           class="cls-2"
           d="m 150.78,356.11 h -7.26 c 0.06,0.82 0.33,1.47 0.81,1.96 0.48,0.48 1.09,0.72 1.84,0.72 0.58,0 1.06,-0.14 1.45,-0.41 0.37,-0.27 0.8,-0.78 1.28,-1.52 l 1.98,1.08 c -0.3,0.51 -0.63,0.95 -0.97,1.32 -0.34,0.37 -0.7,0.67 -1.09,0.9 -0.39,0.24 -0.81,0.41 -1.26,0.52 -0.45,0.11 -0.94,0.16 -1.47,0.16 -1.51,0 -2.72,-0.48 -3.64,-1.43 -0.92,-0.96 -1.37,-2.24 -1.37,-3.83 0,-1.59 0.44,-2.85 1.33,-3.83 0.89,-0.96 2.08,-1.44 3.56,-1.44 1.48,0 2.67,0.47 3.54,1.4 0.86,0.93 1.29,2.21 1.29,3.86 v 0.54 z m -2.41,-1.88 c -0.33,-1.23 -1.11,-1.84 -2.36,-1.84 -0.28,0 -0.55,0.04 -0.8,0.13 -0.25,0.09 -0.48,0.21 -0.68,0.37 -0.2,0.16 -0.38,0.35 -0.53,0.58 -0.15,0.22 -0.26,0.48 -0.33,0.77 h 4.7 z m 1.1,-8.56 -3.79,3.38 -1.28,-0.78 2.86,-3.73 2.2,1.13 z"
           id="path16"
           style="fill:#000000;fill-opacity:1" />
        <path
           class="cls-2"
           d="m 167.38,343.26 h 2.35 v 17.29 h -2.35 v -1.04 c -0.92,0.89 -1.97,1.33 -3.13,1.33 -1.39,0 -2.54,-0.5 -3.45,-1.49 -0.91,-1.02 -1.36,-2.29 -1.36,-3.81 0,-1.52 0.45,-2.73 1.36,-3.73 0.9,-1 2.03,-1.5 3.4,-1.5 1.19,0 2.25,0.48 3.18,1.43 z m -5.55,12.28 c 0,0.96 0.26,1.73 0.78,2.33 0.53,0.61 1.21,0.91 2.02,0.91 0.87,0 1.57,-0.29 2.1,-0.88 0.53,-0.61 0.8,-1.38 0.8,-2.31 0,-0.93 -0.27,-1.71 -0.8,-2.31 -0.53,-0.59 -1.23,-0.89 -2.08,-0.89 -0.8,0 -1.48,0.3 -2.02,0.9 -0.53,0.61 -0.8,1.36 -0.8,2.25 z"
           id="path17"
           style="fill:#000000;fill-opacity:1" />
        <path
           class="cls-2"
           d="m 181.9,356.11 h -7.26 c 0.06,0.82 0.33,1.47 0.81,1.96 0.48,0.48 1.09,0.72 1.84,0.72 0.58,0 1.06,-0.14 1.45,-0.41 0.37,-0.27 0.8,-0.78 1.28,-1.52 l 1.98,1.08 c -0.31,0.51 -0.63,0.95 -0.97,1.32 -0.34,0.37 -0.7,0.67 -1.09,0.9 -0.39,0.24 -0.81,0.41 -1.26,0.52 -0.45,0.11 -0.94,0.16 -1.47,0.16 -1.51,0 -2.72,-0.48 -3.64,-1.43 -0.92,-0.96 -1.37,-2.24 -1.37,-3.83 0,-1.59 0.44,-2.85 1.33,-3.83 0.89,-0.96 2.08,-1.44 3.56,-1.44 1.48,0 2.67,0.47 3.54,1.4 0.86,0.93 1.29,2.21 1.29,3.86 v 0.54 z m -2.41,-1.88 c -0.33,-1.23 -1.11,-1.84 -2.36,-1.84 -0.28,0 -0.55,0.04 -0.8,0.13 -0.25,0.09 -0.48,0.21 -0.68,0.37 -0.2,0.16 -0.38,0.35 -0.53,0.58 -0.15,0.22 -0.26,0.48 -0.33,0.77 h 4.7 z"
           id="path18"
           style="fill:#000000;fill-opacity:1" />
        <path
           class="cls-2"
           d="m 195.91,346.98 v 13.57 h -2.42 v -13.57 h -3.69 v -2.24 h 9.8 v 2.24 h -3.68 z"
           id="path19"
           style="fill:#000000;fill-opacity:1" />
        <path
           class="cls-2"
           d="m 209.66,356.11 h -7.26 c 0.06,0.82 0.33,1.47 0.81,1.96 0.48,0.48 1.09,0.72 1.84,0.72 0.58,0 1.06,-0.14 1.45,-0.41 0.37,-0.27 0.8,-0.78 1.28,-1.52 l 1.98,1.08 c -0.31,0.51 -0.63,0.95 -0.97,1.32 -0.34,0.37 -0.7,0.67 -1.09,0.9 -0.39,0.24 -0.81,0.41 -1.26,0.52 -0.45,0.11 -0.94,0.16 -1.47,0.16 -1.51,0 -2.72,-0.48 -3.64,-1.43 -0.92,-0.96 -1.37,-2.24 -1.37,-3.83 0,-1.59 0.44,-2.85 1.33,-3.83 0.89,-0.96 2.08,-1.44 3.56,-1.44 1.48,0 2.67,0.47 3.54,1.4 0.86,0.93 1.29,2.21 1.29,3.86 v 0.54 z m -2.41,-1.88 c -0.33,-1.23 -1.11,-1.84 -2.36,-1.84 -0.28,0 -0.55,0.04 -0.8,0.13 -0.25,0.09 -0.48,0.21 -0.68,0.37 -0.2,0.16 -0.38,0.35 -0.53,0.58 -0.15,0.22 -0.26,0.48 -0.33,0.77 h 4.7 z"
           id="path20"
           style="fill:#000000;fill-opacity:1" />
        <path
           class="cls-2"
           d="m 220.1,351.01 v 3.06 c -0.53,-0.64 -1.01,-1.08 -1.43,-1.32 -0.42,-0.25 -0.9,-0.37 -1.47,-0.37 -0.88,0 -1.61,0.3 -2.19,0.91 -0.58,0.61 -0.87,1.37 -0.87,2.28 0,0.91 0.28,1.7 0.84,2.3 0.57,0.6 1.29,0.9 2.17,0.9 0.56,0 1.06,-0.12 1.49,-0.36 0.42,-0.23 0.9,-0.68 1.47,-1.35 v 3.04 c -0.95,0.48 -1.9,0.73 -2.85,0.73 -1.57,0 -2.88,-0.5 -3.93,-1.49 -1.05,-1 -1.58,-2.25 -1.58,-3.74 0,-1.49 0.53,-2.74 1.6,-3.77 1.07,-1.02 2.38,-1.53 3.93,-1.53 1,0 1.94,0.24 2.83,0.71 z"
           id="path21"
           style="fill:#000000;fill-opacity:1" />
        <path
           class="cls-2"
           d="m 222.92,343.26 h 2.34 v 8.15 c 0.83,-0.74 1.75,-1.11 2.76,-1.11 1.14,0 2.06,0.36 2.75,1.1 0.58,0.63 0.87,1.65 0.87,3.04 v 6.11 h -2.34 v -5.9 c 0,-0.8 -0.14,-1.38 -0.43,-1.74 -0.29,-0.36 -0.75,-0.54 -1.39,-0.54 -0.82,0 -1.39,0.25 -1.73,0.75 -0.33,0.5 -0.49,1.37 -0.49,2.6 v 4.82 h -2.34 v -17.29 z"
           id="path22"
           style="fill:#000000;fill-opacity:1" />
        <path
           class="cls-2"
           d="m 234.6,350.58 h 2.35 v 0.92 c 0.82,-0.8 1.74,-1.2 2.77,-1.2 1.18,0 2.1,0.36 2.76,1.1 0.57,0.62 0.85,1.63 0.85,3.04 v 6.11 h -2.35 v -5.57 c 0,-0.98 -0.14,-1.66 -0.42,-2.04 -0.27,-0.38 -0.76,-0.57 -1.48,-0.57 -0.78,0 -1.33,0.25 -1.65,0.76 -0.32,0.5 -0.48,1.37 -0.48,2.61 v 4.81 h -2.35 z"
           id="path23"
           style="fill:#000000;fill-opacity:1" />
        <path
           class="cls-2"
           d="m 245.8,355.49 c 0,-1.44 0.52,-2.67 1.57,-3.68 1.05,-1.01 2.32,-1.52 3.83,-1.52 1.51,0 2.79,0.51 3.85,1.53 1.04,1.02 1.56,2.27 1.56,3.75 0,1.48 -0.52,2.75 -1.57,3.76 -1.05,1 -2.35,1.51 -3.88,1.51 -1.53,0 -2.79,-0.51 -3.82,-1.54 -1.03,-1.01 -1.54,-2.28 -1.54,-3.81 z m 2.39,0.04 c 0,1 0.27,1.78 0.81,2.36 0.55,0.59 1.29,0.88 2.19,0.88 0.9,0 1.65,-0.29 2.19,-0.87 0.55,-0.58 0.82,-1.35 0.82,-2.32 0,-0.97 -0.27,-1.74 -0.82,-2.32 -0.55,-0.59 -1.29,-0.88 -2.19,-0.88 -0.9,0 -1.62,0.29 -2.17,0.88 -0.55,0.59 -0.83,1.34 -0.83,2.27 z"
           id="path24"
           style="fill:#000000;fill-opacity:1" />
        <path
           class="cls-2"
           d="m 261.41,343.26 v 17.29 h -2.34 v -17.29 z"
           id="path25"
           style="fill:#000000;fill-opacity:1" />
        <path
           class="cls-2"
           d="m 263.9,355.49 c 0,-1.44 0.52,-2.67 1.57,-3.68 1.05,-1.01 2.32,-1.52 3.83,-1.52 1.51,0 2.79,0.51 3.85,1.53 1.04,1.02 1.56,2.27 1.56,3.75 0,1.48 -0.52,2.75 -1.57,3.76 -1.05,1 -2.35,1.51 -3.88,1.51 -1.53,0 -2.79,-0.51 -3.82,-1.54 -1.03,-1.01 -1.54,-2.28 -1.54,-3.81 z m 2.39,0.04 c 0,1 0.27,1.78 0.81,2.36 0.55,0.59 1.29,0.88 2.19,0.88 0.9,0 1.65,-0.29 2.19,-0.87 0.55,-0.58 0.82,-1.35 0.82,-2.32 0,-0.97 -0.27,-1.74 -0.82,-2.32 -0.55,-0.59 -1.29,-0.88 -2.19,-0.88 -0.9,0 -1.62,0.29 -2.17,0.88 -0.55,0.59 -0.83,1.34 -0.83,2.27 z"
           id="path26"
           style="fill:#000000;fill-opacity:1" />
        <path
           class="cls-2"
           d="m 286.98,360.31 c 0,0.47 -0.02,0.89 -0.05,1.24 -0.03,0.36 -0.07,0.67 -0.13,0.95 -0.17,0.75 -0.49,1.4 -0.98,1.93 -0.91,1.04 -2.17,1.56 -3.77,1.56 -1.35,0 -2.47,-0.36 -3.34,-1.07 -0.9,-0.74 -1.42,-1.76 -1.56,-3.06 h 2.35 c 0.09,0.49 0.24,0.87 0.45,1.14 0.48,0.62 1.19,0.93 2.12,0.93 1.71,0 2.57,-1.03 2.57,-3.1 v -1.39 c -0.93,0.93 -2,1.4 -3.21,1.4 -1.38,0 -2.51,-0.49 -3.39,-1.47 -0.89,-1 -1.33,-2.24 -1.33,-3.74 0,-1.5 0.41,-2.69 1.24,-3.71 0.89,-1.08 2.06,-1.62 3.52,-1.62 1.28,0 2.34,0.47 3.18,1.4 v -1.13 h 2.34 v 9.74 z m -2.25,-4.73 c 0,-0.97 -0.26,-1.74 -0.79,-2.32 -0.53,-0.59 -1.22,-0.89 -2.05,-0.89 -0.89,0 -1.59,0.32 -2.1,0.97 -0.46,0.58 -0.7,1.33 -0.7,2.25 0,0.92 0.23,1.65 0.7,2.23 0.51,0.63 1.21,0.95 2.1,0.95 0.89,0 1.6,-0.32 2.12,-0.96 0.48,-0.58 0.72,-1.32 0.72,-2.23 z"
           id="path27"
           style="fill:#000000;fill-opacity:1" />
        <path
           class="cls-2"
           d="m 289.58,346.43 c 0,-0.4 0.15,-0.75 0.45,-1.04 0.3,-0.29 0.66,-0.44 1.07,-0.44 0.41,0 0.78,0.15 1.08,0.44 0.3,0.29 0.45,0.64 0.45,1.05 0,0.41 -0.15,0.77 -0.45,1.06 -0.29,0.29 -0.65,0.44 -1.07,0.44 -0.42,0 -0.78,-0.15 -1.08,-0.44 -0.3,-0.29 -0.45,-0.65 -0.45,-1.08 z m 2.69,4.15 v 9.97 h -2.34 v -9.97 z"
           id="path28"
           style="fill:#000000;fill-opacity:1" />
        <path
           class="cls-2"
           d="m 304.46,356.11 h -7.26 c 0.06,0.82 0.33,1.47 0.81,1.96 0.48,0.48 1.09,0.72 1.84,0.72 0.58,0 1.06,-0.14 1.45,-0.41 0.37,-0.27 0.8,-0.78 1.28,-1.52 l 1.98,1.08 c -0.31,0.51 -0.63,0.95 -0.97,1.32 -0.34,0.37 -0.7,0.67 -1.09,0.9 -0.39,0.24 -0.81,0.41 -1.26,0.52 -0.45,0.11 -0.94,0.16 -1.47,0.16 -1.51,0 -2.72,-0.48 -3.64,-1.43 -0.92,-0.96 -1.37,-2.24 -1.37,-3.83 0,-1.59 0.44,-2.85 1.33,-3.83 0.89,-0.96 2.08,-1.44 3.56,-1.44 1.48,0 2.67,0.47 3.54,1.4 0.86,0.93 1.29,2.21 1.29,3.86 v 0.54 z m -2.41,-1.88 c -0.33,-1.23 -1.11,-1.84 -2.36,-1.84 -0.28,0 -0.55,0.04 -0.8,0.13 -0.25,0.09 -0.48,0.21 -0.68,0.37 -0.2,0.16 -0.38,0.35 -0.53,0.58 -0.15,0.22 -0.26,0.48 -0.33,0.77 h 4.7 z"
           id="path29"
           style="fill:#000000;fill-opacity:1" />
        <path
           class="cls-2"
           d="m 321.05,343.26 h 2.35 v 17.29 h -2.35 v -1.04 c -0.92,0.89 -1.97,1.33 -3.13,1.33 -1.39,0 -2.54,-0.5 -3.45,-1.49 -0.91,-1.02 -1.36,-2.29 -1.36,-3.81 0,-1.52 0.45,-2.73 1.36,-3.73 0.9,-1 2.03,-1.5 3.4,-1.5 1.19,0 2.25,0.48 3.18,1.43 z m -5.55,12.28 c 0,0.96 0.26,1.73 0.78,2.33 0.53,0.61 1.21,0.91 2.02,0.91 0.87,0 1.57,-0.29 2.1,-0.88 0.53,-0.61 0.8,-1.38 0.8,-2.31 0,-0.93 -0.27,-1.71 -0.8,-2.31 -0.53,-0.59 -1.23,-0.89 -2.08,-0.89 -0.8,0 -1.48,0.3 -2.02,0.9 -0.53,0.61 -0.8,1.36 -0.8,2.25 z"
           id="path30"
           style="fill:#000000;fill-opacity:1" />
        <path
           class="cls-2"
           d="m 335.58,356.11 h -7.26 c 0.06,0.82 0.33,1.47 0.81,1.96 0.48,0.48 1.09,0.72 1.84,0.72 0.58,0 1.06,-0.14 1.45,-0.41 0.37,-0.27 0.8,-0.78 1.28,-1.52 l 1.98,1.08 c -0.31,0.51 -0.63,0.95 -0.97,1.32 -0.34,0.37 -0.7,0.67 -1.09,0.9 -0.39,0.24 -0.81,0.41 -1.26,0.52 -0.45,0.11 -0.94,0.16 -1.47,0.16 -1.51,0 -2.72,-0.48 -3.64,-1.43 -0.92,-0.96 -1.37,-2.24 -1.37,-3.83 0,-1.59 0.44,-2.85 1.33,-3.83 0.89,-0.96 2.08,-1.44 3.56,-1.44 1.48,0 2.67,0.47 3.54,1.4 0.86,0.93 1.29,2.21 1.29,3.86 v 0.54 z m -2.41,-1.88 c -0.33,-1.23 -1.11,-1.84 -2.36,-1.84 -0.28,0 -0.55,0.04 -0.8,0.13 -0.25,0.09 -0.48,0.21 -0.68,0.37 -0.2,0.16 -0.38,0.35 -0.53,0.58 -0.15,0.22 -0.26,0.48 -0.33,0.77 h 4.7 z"
           id="path31"
           style="fill:#000000;fill-opacity:1" />
        <path
           class="cls-2"
           d="m 345.16,360.55 v -15.81 h 2.41 c 1.07,0 1.93,0.08 2.57,0.25 0.64,0.16 1.19,0.44 1.63,0.83 0.45,0.4 0.81,0.9 1.07,1.51 0.27,0.61 0.41,1.22 0.41,1.84 0,1.13 -0.44,2.09 -1.32,2.88 0.85,0.29 1.53,0.79 2.02,1.51 0.5,0.71 0.75,1.54 0.75,2.48 0,1.24 -0.44,2.28 -1.33,3.13 -0.53,0.53 -1.13,0.89 -1.8,1.1 -0.73,0.2 -1.64,0.3 -2.73,0.3 h -3.67 z m 2.42,-9.02 h 0.76 c 0.9,0 1.56,-0.2 1.98,-0.59 0.42,-0.39 0.63,-0.97 0.63,-1.74 0,-0.77 -0.21,-1.31 -0.64,-1.69 -0.43,-0.39 -1.05,-0.58 -1.87,-0.58 h -0.85 v 4.6 z m 0,6.78 h 1.5 c 1.1,0 1.9,-0.21 2.41,-0.63 0.54,-0.46 0.81,-1.04 0.81,-1.74 0,-0.7 -0.26,-1.26 -0.78,-1.72 -0.51,-0.46 -1.41,-0.69 -2.71,-0.69 h -1.23 z"
           id="path32"
           style="fill:#000000;fill-opacity:1" />
        <path
           class="cls-2"
           d="m 366.53,356.11 h -7.26 c 0.06,0.82 0.33,1.47 0.81,1.96 0.48,0.48 1.09,0.72 1.84,0.72 0.58,0 1.06,-0.14 1.45,-0.41 0.37,-0.27 0.8,-0.78 1.28,-1.52 l 1.98,1.08 c -0.3,0.51 -0.63,0.95 -0.97,1.32 -0.34,0.37 -0.7,0.67 -1.09,0.9 -0.39,0.24 -0.81,0.41 -1.26,0.52 -0.45,0.11 -0.94,0.16 -1.47,0.16 -1.51,0 -2.73,-0.48 -3.64,-1.43 -0.91,-0.96 -1.37,-2.24 -1.37,-3.83 0,-1.59 0.44,-2.85 1.33,-3.83 0.89,-0.96 2.08,-1.44 3.56,-1.44 1.48,0 2.67,0.47 3.54,1.4 0.86,0.93 1.29,2.21 1.29,3.86 v 0.54 z m -2.41,-1.88 c -0.33,-1.23 -1.11,-1.84 -2.36,-1.84 -0.28,0 -0.55,0.04 -0.8,0.13 -0.25,0.09 -0.48,0.21 -0.68,0.37 -0.2,0.16 -0.38,0.35 -0.53,0.58 -0.14,0.22 -0.26,0.48 -0.33,0.77 h 4.7 z"
           id="path33"
           style="fill:#000000;fill-opacity:1" />
        <path
           class="cls-2"
           d="m 371.43,343.26 v 17.29 h -2.34 v -17.29 z"
           id="path34"
           style="fill:#000000;fill-opacity:1" />
        <path
           class="cls-2"
           d="m 376.81,352.73 v 7.82 h -2.35 v -7.82 h -0.83 v -2.15 h 0.83 v -3.85 c 0,-1.26 0.22,-2.14 0.67,-2.66 0.61,-0.72 1.5,-1.09 2.66,-1.09 0.42,0 0.94,0.12 1.57,0.36 v 2.35 l -0.24,-0.12 c -0.51,-0.25 -0.92,-0.38 -1.25,-0.38 -0.42,0 -0.7,0.15 -0.84,0.44 -0.15,0.29 -0.22,0.84 -0.22,1.66 v 3.29 h 2.55 v 2.15 z"
           id="path35"
           style="fill:#000000;fill-opacity:1" />
        <path
           class="cls-2"
           d="m 380.49,355.49 c 0,-1.44 0.52,-2.67 1.57,-3.68 1.05,-1.01 2.32,-1.52 3.83,-1.52 1.51,0 2.79,0.51 3.85,1.53 1.04,1.02 1.56,2.27 1.56,3.75 0,1.48 -0.52,2.75 -1.57,3.76 -1.05,1 -2.35,1.51 -3.88,1.51 -1.53,0 -2.79,-0.51 -3.82,-1.54 -1.03,-1.01 -1.54,-2.28 -1.54,-3.81 z m 2.39,0.04 c 0,1 0.27,1.78 0.81,2.36 0.55,0.59 1.29,0.88 2.19,0.88 0.9,0 1.65,-0.29 2.19,-0.87 0.55,-0.58 0.82,-1.35 0.82,-2.32 0,-0.97 -0.27,-1.74 -0.82,-2.32 -0.55,-0.59 -1.29,-0.88 -2.19,-0.88 -0.9,0 -1.62,0.29 -2.17,0.88 -0.55,0.59 -0.83,1.34 -0.83,2.27 z"
           id="path36"
           style="fill:#000000;fill-opacity:1" />
        <path
           class="cls-2"
           d="m 393.78,350.58 h 2.34 v 0.89 c 0.43,-0.44 0.81,-0.75 1.14,-0.91 0.34,-0.17 0.74,-0.26 1.21,-0.26 0.62,0 1.26,0.2 1.93,0.59 l -1.07,2.11 c -0.44,-0.31 -0.88,-0.47 -1.3,-0.47 -1.28,0 -1.91,0.95 -1.91,2.85 v 5.17 h -2.34 z"
           id="path37"
           style="fill:#000000;fill-opacity:1" />
        <path
           class="cls-2"
           d="m 404.92,352.73 v 7.82 h -2.34 v -7.82 h -1 v -2.15 h 1 v -3.66 h 2.34 v 3.66 h 1.82 v 2.15 z"
           id="path38"
           style="fill:#000000;fill-opacity:1" />
        <path
           class="cls-2"
           d="m 414.79,360.55 3.38,-17 5.51,12.29 5.71,-12.29 3.04,17 h -2.49 l -1.55,-9.54 -4.75,10.27 -4.62,-10.28 -1.73,9.55 h -2.51 z"
           id="path39"
           style="fill:#000000;fill-opacity:1" />
        <path
           class="cls-2"
           d="m 434.9,355.49 c 0,-1.44 0.52,-2.67 1.57,-3.68 1.05,-1.01 2.32,-1.52 3.83,-1.52 1.51,0 2.79,0.51 3.85,1.53 1.04,1.02 1.56,2.27 1.56,3.75 0,1.48 -0.52,2.75 -1.57,3.76 -1.05,1 -2.35,1.51 -3.88,1.51 -1.53,0 -2.79,-0.51 -3.82,-1.54 -1.03,-1.01 -1.54,-2.28 -1.54,-3.81 z m 2.39,0.04 c 0,1 0.27,1.78 0.81,2.36 0.55,0.59 1.29,0.88 2.19,0.88 0.9,0 1.65,-0.29 2.19,-0.87 0.55,-0.58 0.82,-1.35 0.82,-2.32 0,-0.97 -0.27,-1.74 -0.82,-2.32 -0.55,-0.59 -1.29,-0.88 -2.19,-0.88 -0.9,0 -1.62,0.29 -2.17,0.88 -0.55,0.59 -0.83,1.34 -0.83,2.27 z"
           id="path40"
           style="fill:#000000;fill-opacity:1" />
        <path
           class="cls-2"
           d="m 448.18,350.58 h 2.35 v 0.92 c 0.82,-0.8 1.74,-1.2 2.77,-1.2 1.18,0 2.1,0.36 2.76,1.1 0.57,0.62 0.85,1.63 0.85,3.04 v 6.11 h -2.35 v -5.57 c 0,-0.98 -0.14,-1.66 -0.42,-2.04 -0.27,-0.38 -0.76,-0.57 -1.48,-0.57 -0.78,0 -1.33,0.25 -1.65,0.76 -0.32,0.5 -0.48,1.37 -0.48,2.61 v 4.81 h -2.35 z"
           id="path41"
           style="fill:#000000;fill-opacity:1" />
        <path
           class="cls-2"
           d="m 462.27,352.73 v 7.82 h -2.34 v -7.82 h -1 v -2.15 h 1 v -3.66 h 2.34 v 3.66 h 1.82 v 2.15 z"
           id="path42"
           style="fill:#000000;fill-opacity:1" />
        <path
           class="cls-2"
           d="m 468.02,343.26 v 8.48 c 0.94,-0.96 2,-1.43 3.18,-1.43 1.37,0 2.5,0.5 3.41,1.5 0.91,1 1.36,2.24 1.36,3.73 0,1.49 -0.46,2.81 -1.37,3.81 -0.91,1 -2.06,1.49 -3.44,1.49 -1.17,0 -2.22,-0.44 -3.14,-1.33 v 1.04 h -2.34 v -17.29 z m 5.56,12.38 c 0,-0.96 -0.26,-1.73 -0.79,-2.33 -0.53,-0.61 -1.2,-0.92 -2.01,-0.92 -0.86,0 -1.56,0.3 -2.1,0.89 -0.53,0.59 -0.8,1.35 -0.8,2.29 0,0.94 0.26,1.74 0.79,2.32 0.53,0.59 1.22,0.89 2.08,0.89 0.81,0 1.48,-0.3 2.02,-0.89 0.54,-0.6 0.81,-1.35 0.81,-2.25 z"
           id="path43"
           style="fill:#000000;fill-opacity:1" />
        <path
           class="cls-2"
           d="m 487.68,356.11 h -7.26 c 0.06,0.82 0.33,1.47 0.81,1.96 0.48,0.48 1.09,0.72 1.84,0.72 0.58,0 1.06,-0.14 1.45,-0.41 0.37,-0.27 0.8,-0.78 1.28,-1.52 l 1.98,1.08 c -0.31,0.51 -0.63,0.95 -0.97,1.32 -0.34,0.37 -0.7,0.67 -1.09,0.9 -0.39,0.24 -0.81,0.41 -1.26,0.52 -0.45,0.11 -0.94,0.16 -1.47,0.16 -1.51,0 -2.72,-0.48 -3.64,-1.43 -0.92,-0.96 -1.37,-2.24 -1.37,-3.83 0,-1.59 0.44,-2.85 1.33,-3.83 0.89,-0.96 2.08,-1.44 3.56,-1.44 1.48,0 2.67,0.47 3.54,1.4 0.86,0.93 1.29,2.21 1.29,3.86 v 0.54 z m -2.41,-1.88 c -0.33,-1.23 -1.11,-1.84 -2.36,-1.84 -0.28,0 -0.55,0.04 -0.8,0.13 -0.25,0.09 -0.48,0.21 -0.68,0.37 -0.2,0.16 -0.38,0.35 -0.53,0.58 -0.15,0.22 -0.26,0.48 -0.33,0.77 h 4.7 z m 1.1,-8.56 -3.78,3.38 -1.28,-0.78 2.86,-3.73 z"
           id="path44"
           style="fill:#000000;fill-opacity:1" />
        <path
           class="cls-2"
           d="m 492.58,343.26 v 17.29 h -2.34 v -17.29 z"
           id="path45"
           style="fill:#000000;fill-opacity:1" />
        <path
           class="cls-2"
           d="m 495.19,346.43 c 0,-0.4 0.15,-0.75 0.45,-1.04 0.3,-0.29 0.66,-0.44 1.07,-0.44 0.41,0 0.78,0.15 1.08,0.44 0.3,0.29 0.45,0.64 0.45,1.05 0,0.41 -0.15,0.77 -0.45,1.06 -0.29,0.29 -0.65,0.44 -1.07,0.44 -0.42,0 -0.78,-0.15 -1.08,-0.44 -0.3,-0.29 -0.45,-0.65 -0.45,-1.08 z m 2.69,4.15 v 9.97 h -2.34 v -9.97 z"
           id="path46"
           style="fill:#000000;fill-opacity:1" />
        <path
           class="cls-2"
           d="m 508.31,350.58 h 2.35 v 9.97 h -2.35 v -1.04 c -0.96,0.89 -2,1.33 -3.11,1.33 -1.4,0 -2.56,-0.5 -3.47,-1.49 -0.91,-1.02 -1.36,-2.29 -1.36,-3.81 0,-1.52 0.45,-2.74 1.36,-3.74 0.91,-1 2.05,-1.49 3.41,-1.49 1.18,0 2.24,0.48 3.17,1.43 z m -5.55,4.96 c 0,0.96 0.26,1.73 0.78,2.33 0.53,0.61 1.21,0.91 2.02,0.91 0.87,0 1.57,-0.29 2.1,-0.88 0.53,-0.61 0.8,-1.38 0.8,-2.31 0,-0.93 -0.27,-1.71 -0.8,-2.31 -0.53,-0.59 -1.23,-0.89 -2.08,-0.89 -0.8,0 -1.48,0.3 -2.02,0.9 -0.53,0.61 -0.8,1.36 -0.8,2.25 z"
           id="path47"
           style="fill:#000000;fill-opacity:1" />
        <path
           class="cls-2"
           d="m 513.61,350.58 h 2.34 v 0.89 c 0.43,-0.44 0.81,-0.75 1.14,-0.91 0.34,-0.17 0.74,-0.26 1.21,-0.26 0.62,0 1.26,0.2 1.93,0.59 l -1.07,2.11 c -0.44,-0.31 -0.88,-0.47 -1.3,-0.47 -1.28,0 -1.91,0.95 -1.91,2.85 v 5.17 h -2.34 z"
           id="path48"
           style="fill:#000000;fill-opacity:1" />
        <path
           class="cls-2"
           d="m 528.9,343.26 h 2.35 v 17.29 h -2.35 v -1.04 c -0.92,0.89 -1.96,1.33 -3.13,1.33 -1.39,0 -2.54,-0.5 -3.45,-1.49 -0.91,-1.02 -1.36,-2.29 -1.36,-3.81 0,-1.52 0.45,-2.73 1.36,-3.73 0.9,-1 2.03,-1.5 3.4,-1.5 1.19,0 2.25,0.48 3.18,1.43 z m -5.55,12.28 c 0,0.96 0.26,1.73 0.78,2.33 0.53,0.61 1.21,0.91 2.02,0.91 0.87,0 1.57,-0.29 2.1,-0.88 0.53,-0.61 0.8,-1.38 0.8,-2.31 0,-0.93 -0.27,-1.71 -0.8,-2.31 -0.53,-0.59 -1.23,-0.89 -2.08,-0.89 -0.8,0 -1.48,0.3 -2.02,0.9 -0.53,0.61 -0.8,1.36 -0.8,2.25 z"
           id="path49"
           style="fill:#000000;fill-opacity:1" />
      </g>
      <g
         id="g72"
         style="display:inline;fill:#000000;fill-opacity:1"
         inkscape:label="assocition">
        <path
           class="cls-2"
           d="m 30.69,313.98 h 5.13 v 21.78 h -5.13 v -2.28 c -2.1,1.94 -4.37,2.91 -6.79,2.91 -3.06,0 -5.59,-1.09 -7.59,-3.26 -1.98,-2.22 -2.98,-4.99 -2.98,-8.32 0,-3.33 0.99,-5.99 2.98,-8.16 1.98,-2.18 4.47,-3.26 7.45,-3.26 2.57,0 4.88,1.04 6.93,3.13 v -2.53 z M 18.56,324.8 c 0,2.09 0.57,3.79 1.7,5.1 1.17,1.33 2.63,1.99 4.41,1.99 1.89,0 3.42,-0.64 4.59,-1.92 1.17,-1.33 1.75,-3.01 1.75,-5.05 0,-2.04 -0.58,-3.73 -1.75,-5.05 -1.17,-1.3 -2.68,-1.95 -4.54,-1.95 -1.76,0 -3.23,0.66 -4.41,1.97 -1.17,1.33 -1.75,2.97 -1.75,4.92 z"
           id="path50"
           style="fill:#000000;fill-opacity:1" />
        <path
           class="cls-2"
           d="m 55.13,317.69 -4.22,2.21 c -0.67,-1.34 -1.49,-2.01 -2.48,-2.01 -0.47,0 -0.87,0.15 -1.2,0.46 -0.33,0.31 -0.5,0.7 -0.5,1.17 0,0.83 0.98,1.66 2.95,2.48 2.71,1.15 4.53,2.21 5.47,3.18 0.94,0.97 1.41,2.27 1.41,3.91 0,2.1 -0.79,3.86 -2.36,5.28 -1.53,1.34 -3.38,2.01 -5.54,2.01 -3.71,0 -6.34,-1.78 -7.88,-5.34 l 4.36,-1.99 c 0.61,1.04 1.07,1.71 1.39,1.99 0.62,0.57 1.36,0.85 2.23,0.85 1.73,0 2.59,-0.78 2.59,-2.33 0,-0.89 -0.67,-1.73 -2,-2.5 -0.51,-0.25 -1.03,-0.5 -1.54,-0.74 -0.52,-0.24 -1.04,-0.48 -1.57,-0.74 -1.48,-0.72 -2.53,-1.43 -3.13,-2.15 -0.77,-0.91 -1.16,-2.08 -1.16,-3.51 0,-1.89 0.66,-3.46 1.98,-4.7 1.35,-1.24 2.98,-1.86 4.91,-1.86 2.83,0 4.94,1.44 6.31,4.32 z"
           id="path51"
           style="fill:#000000;fill-opacity:1" />
        <path
           class="cls-2"
           d="m 74.01,317.69 -4.22,2.21 c -0.67,-1.34 -1.49,-2.01 -2.48,-2.01 -0.47,0 -0.87,0.15 -1.2,0.46 -0.33,0.31 -0.5,0.7 -0.5,1.17 0,0.83 0.98,1.66 2.95,2.48 2.71,1.15 4.53,2.21 5.47,3.18 0.94,0.97 1.41,2.27 1.41,3.91 0,2.1 -0.79,3.86 -2.36,5.28 -1.53,1.34 -3.38,2.01 -5.54,2.01 -3.71,0 -6.34,-1.78 -7.88,-5.34 l 4.36,-1.99 c 0.61,1.04 1.07,1.71 1.39,1.99 0.62,0.57 1.36,0.85 2.23,0.85 1.73,0 2.59,-0.78 2.59,-2.33 0,-0.89 -0.67,-1.73 -2,-2.5 -0.51,-0.25 -1.03,-0.5 -1.54,-0.74 -0.52,-0.24 -1.04,-0.48 -1.57,-0.74 -1.48,-0.72 -2.53,-1.43 -3.13,-2.15 -0.77,-0.91 -1.16,-2.08 -1.16,-3.51 0,-1.89 0.66,-3.46 1.98,-4.7 1.35,-1.24 2.98,-1.86 4.91,-1.86 2.83,0 4.94,1.44 6.31,4.32 z"
           id="path52"
           style="fill:#000000;fill-opacity:1" />
        <path
           class="cls-2"
           d="m 78.98,324.71 c 0,-3.15 1.14,-5.82 3.43,-8.03 2.29,-2.21 5.07,-3.31 8.36,-3.31 3.29,0 6.1,1.11 8.4,3.33 2.27,2.22 3.41,4.95 3.41,8.18 0,3.23 -1.14,6 -3.43,8.21 -2.3,2.19 -5.13,3.29 -8.47,3.29 -3.34,0 -6.09,-1.12 -8.34,-3.35 -2.24,-2.21 -3.36,-4.98 -3.36,-8.32 z m 5.22,0.09 c 0,2.18 0.59,3.9 1.77,5.17 1.21,1.28 2.81,1.92 4.79,1.92 1.98,0 3.6,-0.63 4.79,-1.9 1.2,-1.27 1.79,-2.96 1.79,-5.08 0,-2.12 -0.6,-3.81 -1.79,-5.08 -1.21,-1.28 -2.81,-1.92 -4.79,-1.92 -1.98,0 -3.54,0.64 -4.75,1.92 -1.21,1.28 -1.82,2.94 -1.82,4.96 z"
           id="path53"
           style="fill:#000000;fill-opacity:1" />
        <path
           class="cls-2"
           d="m 125.2,314.91 v 6.69 c -1.17,-1.4 -2.21,-2.36 -3.13,-2.88 -0.91,-0.54 -1.98,-0.81 -3.2,-0.81 -1.92,0 -3.52,0.66 -4.79,1.99 -1.27,1.33 -1.91,2.99 -1.91,4.99 0,2 0.61,3.72 1.84,5.03 1.24,1.31 2.82,1.97 4.75,1.97 1.23,0 2.31,-0.26 3.25,-0.78 0.91,-0.51 1.98,-1.49 3.2,-2.95 v 6.64 c -2.08,1.06 -4.15,1.59 -6.22,1.59 -3.42,0 -6.28,-1.09 -8.59,-3.26 -2.3,-2.19 -3.45,-4.91 -3.45,-8.16 0,-3.25 1.17,-5.99 3.5,-8.23 2.33,-2.24 5.19,-3.35 8.59,-3.35 2.18,0 4.24,0.51 6.18,1.54 z"
           id="path54"
           style="fill:#000000;fill-opacity:1" />
        <path
           class="cls-2"
           d="m 129.38,304.92 c 0,-0.88 0.32,-1.64 0.98,-2.28 0.65,-0.64 1.43,-0.96 2.34,-0.96 0.91,0 1.71,0.32 2.36,0.96 0.65,0.63 0.98,1.39 0.98,2.3 0,0.91 -0.33,1.68 -0.98,2.33 -0.64,0.64 -1.42,0.96 -2.34,0.96 -0.92,0 -1.71,-0.32 -2.36,-0.96 -0.65,-0.64 -0.98,-1.42 -0.98,-2.35 z m 5.88,9.06 v 21.78 h -5.11 v -21.78 z"
           id="path55"
           style="fill:#000000;fill-opacity:1" />
        <path
           class="cls-2"
           d="m 158.05,313.98 h 5.13 v 21.78 h -5.13 v -2.28 c -2.1,1.94 -4.37,2.91 -6.79,2.91 -3.06,0 -5.59,-1.09 -7.59,-3.26 -1.98,-2.22 -2.98,-4.99 -2.98,-8.32 0,-3.33 0.99,-5.99 2.98,-8.16 1.98,-2.18 4.47,-3.26 7.45,-3.26 2.57,0 4.88,1.04 6.93,3.13 v -2.53 z m -12.13,10.82 c 0,2.09 0.57,3.79 1.7,5.1 1.17,1.33 2.63,1.99 4.41,1.99 1.89,0 3.42,-0.64 4.59,-1.92 1.17,-1.33 1.75,-3.01 1.75,-5.05 0,-2.04 -0.58,-3.73 -1.75,-5.05 -1.17,-1.3 -2.68,-1.95 -4.54,-1.95 -1.76,0 -3.23,0.66 -4.41,1.97 -1.17,1.33 -1.75,2.97 -1.75,4.92 z"
           id="path56"
           style="fill:#000000;fill-opacity:1" />
        <path
           class="cls-2"
           d="m 174.9,318.67 v 17.08 h -5.11 v -17.08 h -2.18 v -4.7 h 2.18 v -7.98 h 5.11 v 7.98 h 3.98 v 4.7 z"
           id="path57"
           style="fill:#000000;fill-opacity:1" />
        <path
           class="cls-2"
           d="m 181.58,304.92 c 0,-0.88 0.33,-1.64 0.98,-2.28 0.65,-0.64 1.43,-0.96 2.34,-0.96 0.91,0 1.71,0.32 2.36,0.96 0.65,0.63 0.98,1.39 0.98,2.3 0,0.91 -0.33,1.68 -0.98,2.33 -0.64,0.64 -1.42,0.96 -2.34,0.96 -0.92,0 -1.71,-0.32 -2.36,-0.96 -0.65,-0.64 -0.98,-1.42 -0.98,-2.35 z m 5.88,9.06 v 21.78 h -5.11 v -21.78 z"
           id="path58"
           style="fill:#000000;fill-opacity:1" />
        <path
           class="cls-2"
           d="m 192.89,324.71 c 0,-3.15 1.14,-5.82 3.43,-8.03 2.29,-2.21 5.07,-3.31 8.36,-3.31 3.29,0 6.1,1.11 8.4,3.33 2.27,2.22 3.41,4.95 3.41,8.18 0,3.23 -1.14,6 -3.43,8.21 -2.3,2.19 -5.13,3.29 -8.47,3.29 -3.34,0 -6.09,-1.12 -8.34,-3.35 -2.24,-2.21 -3.36,-4.98 -3.36,-8.32 z m 5.22,0.09 c 0,2.18 0.59,3.9 1.77,5.17 1.21,1.28 2.81,1.92 4.79,1.92 1.98,0 3.6,-0.63 4.79,-1.9 1.2,-1.27 1.79,-2.96 1.79,-5.08 0,-2.12 -0.6,-3.81 -1.79,-5.08 -1.21,-1.28 -2.81,-1.92 -4.79,-1.92 -1.98,0 -3.54,0.64 -4.75,1.92 -1.21,1.28 -1.82,2.94 -1.82,4.96 z"
           id="path59"
           style="fill:#000000;fill-opacity:1" />
        <path
           class="cls-2"
           d="m 221.89,313.98 h 5.13 v 2.01 c 1.79,-1.74 3.8,-2.62 6.04,-2.62 2.57,0 4.58,0.8 6.02,2.39 1.24,1.36 1.86,3.57 1.86,6.64 v 13.35 h -5.13 v -12.16 c 0,-2.15 -0.3,-3.63 -0.91,-4.45 -0.59,-0.83 -1.67,-1.25 -3.23,-1.25 -1.7,0 -2.9,0.55 -3.61,1.65 -0.7,1.09 -1.04,2.99 -1.04,5.7 v 10.51 h -5.13 v -21.78 z"
           id="path60"
           style="fill:#000000;fill-opacity:1" />
        <path
           class="cls-2"
           d="m 278.06,297.99 h 5.13 v 37.77 h -5.13 v -2.28 c -2.01,1.94 -4.29,2.91 -6.84,2.91 -3.03,0 -5.54,-1.09 -7.54,-3.26 -1.98,-2.22 -2.98,-4.99 -2.98,-8.32 0,-3.33 0.99,-5.96 2.98,-8.14 1.97,-2.19 4.44,-3.29 7.43,-3.29 2.59,0 4.91,1.04 6.95,3.13 z m -12.13,26.81 c 0,2.09 0.57,3.79 1.7,5.1 1.17,1.33 2.63,1.99 4.41,1.99 1.89,0 3.42,-0.64 4.59,-1.92 1.17,-1.33 1.75,-3.01 1.75,-5.05 0,-2.04 -0.58,-3.73 -1.75,-5.05 -1.17,-1.3 -2.68,-1.95 -4.54,-1.95 -1.76,0 -3.23,0.66 -4.41,1.97 -1.17,1.33 -1.75,2.97 -1.75,4.92 z"
           id="path61"
           style="fill:#000000;fill-opacity:1" />
        <path
           class="cls-2"
           d="m 309.79,326.05 h -15.85 c 0.14,1.79 0.73,3.21 1.77,4.27 1.05,1.04 2.39,1.57 4.02,1.57 1.27,0 2.32,-0.3 3.16,-0.89 0.82,-0.6 1.75,-1.7 2.79,-3.31 l 4.31,2.37 c -0.67,1.12 -1.37,2.08 -2.11,2.87 -0.74,0.8 -1.54,1.45 -2.39,1.97 -0.85,0.52 -1.76,0.89 -2.75,1.13 -0.98,0.24 -2.05,0.36 -3.2,0.36 -3.3,0 -5.95,-1.04 -7.95,-3.13 -2,-2.1 -3,-4.89 -3,-8.36 0,-3.47 0.97,-6.23 2.91,-8.36 1.95,-2.1 4.54,-3.15 7.77,-3.15 3.23,0 5.83,1.02 7.72,3.06 1.88,2.03 2.82,4.84 2.82,8.43 l -0.02,1.19 z m -5.25,-4.11 c -0.71,-2.68 -2.43,-4.03 -5.16,-4.03 -0.62,0 -1.2,0.09 -1.75,0.28 -0.55,0.19 -1.04,0.45 -1.49,0.8 -0.45,0.35 -0.83,0.77 -1.15,1.26 -0.32,0.49 -0.56,1.05 -0.73,1.68 h 10.27 z"
           id="path62"
           style="fill:#000000;fill-opacity:1" />
        <path
           class="cls-2"
           d="m 328.24,317.69 -4.22,2.21 c -0.67,-1.34 -1.49,-2.01 -2.48,-2.01 -0.47,0 -0.87,0.15 -1.2,0.46 -0.33,0.31 -0.5,0.7 -0.5,1.17 0,0.83 0.98,1.66 2.95,2.48 2.71,1.15 4.53,2.21 5.47,3.18 0.94,0.97 1.41,2.27 1.41,3.91 0,2.1 -0.79,3.86 -2.36,5.28 -1.53,1.34 -3.38,2.01 -5.54,2.01 -3.71,0 -6.34,-1.78 -7.88,-5.34 l 4.36,-1.99 c 0.61,1.04 1.07,1.71 1.39,1.99 0.62,0.57 1.36,0.85 2.23,0.85 1.73,0 2.59,-0.78 2.59,-2.33 0,-0.89 -0.67,-1.73 -2,-2.5 -0.52,-0.25 -1.03,-0.5 -1.54,-0.74 -0.51,-0.24 -1.04,-0.48 -1.57,-0.74 -1.48,-0.72 -2.53,-1.43 -3.13,-2.15 -0.77,-0.91 -1.16,-2.08 -1.16,-3.51 0,-1.89 0.66,-3.46 1.98,-4.7 1.35,-1.24 2.98,-1.86 4.91,-1.86 2.83,0 4.94,1.44 6.31,4.32 z"
           id="path63"
           style="fill:#000000;fill-opacity:1" />
        <path
           class="cls-2"
           d="m 368.76,326.05 h -15.85 c 0.14,1.79 0.73,3.21 1.77,4.27 1.05,1.04 2.39,1.57 4.02,1.57 1.27,0 2.32,-0.3 3.16,-0.89 0.82,-0.6 1.75,-1.7 2.79,-3.31 l 4.31,2.37 c -0.67,1.12 -1.37,2.08 -2.11,2.87 -0.74,0.8 -1.54,1.45 -2.39,1.97 -0.85,0.52 -1.76,0.89 -2.75,1.13 -0.98,0.24 -2.05,0.36 -3.2,0.36 -3.3,0 -5.95,-1.04 -7.95,-3.13 -2,-2.1 -3,-4.89 -3,-8.36 0,-3.47 0.97,-6.23 2.91,-8.36 1.95,-2.1 4.54,-3.15 7.77,-3.15 3.23,0 5.83,1.02 7.72,3.06 1.88,2.03 2.82,4.84 2.82,8.43 l -0.02,1.19 z m -5.25,-4.11 c -0.71,-2.68 -2.43,-4.03 -5.16,-4.03 -0.62,0 -1.2,0.09 -1.75,0.28 -0.55,0.19 -1.04,0.45 -1.49,0.8 -0.45,0.35 -0.83,0.77 -1.15,1.26 -0.32,0.49 -0.56,1.05 -0.73,1.68 h 10.27 z m 2.41,-18.69 -8.27,7.38 -2.79,-1.7 6.25,-8.14 z"
           id="path64"
           style="display:inline;fill:#000000;fill-opacity:1" />
        <path
           class="cls-2"
           d="m 380.02,318.67 v 17.08 h -5.11 v -17.08 h -2.18 v -4.7 h 2.18 v -7.98 h 5.11 v 7.98 h 3.97 v 4.7 z"
           id="path65"
           style="fill:#000000;fill-opacity:1" />
        <path
           class="cls-2"
           d="m 392.58,313.98 v 12.5 c 0,3.61 1.45,5.41 4.34,5.41 2.89,0 4.34,-1.8 4.34,-5.41 v -12.5 h 5.11 v 12.61 c 0,1.74 -0.22,3.25 -0.66,4.52 -0.42,1.13 -1.16,2.15 -2.2,3.06 -1.73,1.48 -3.92,2.21 -6.59,2.21 -2.67,0 -4.84,-0.74 -6.56,-2.21 -1.06,-0.91 -1.81,-1.93 -2.25,-3.06 -0.42,-1.01 -0.64,-2.52 -0.64,-4.52 v -12.61 z"
           id="path66"
           style="fill:#000000;fill-opacity:1" />
        <path
           class="cls-2"
           d="m 429.13,297.99 h 5.13 v 37.77 h -5.13 v -2.28 c -2.01,1.94 -4.29,2.91 -6.84,2.91 -3.03,0 -5.54,-1.09 -7.54,-3.26 -1.98,-2.22 -2.97,-4.99 -2.97,-8.32 0,-3.33 0.99,-5.96 2.97,-8.14 1.97,-2.19 4.44,-3.29 7.43,-3.29 2.59,0 4.91,1.04 6.95,3.13 z M 417,324.8 c 0,2.09 0.57,3.79 1.7,5.1 1.17,1.33 2.63,1.99 4.41,1.99 1.89,0 3.42,-0.64 4.59,-1.92 1.17,-1.33 1.75,-3.01 1.75,-5.05 0,-2.04 -0.58,-3.73 -1.75,-5.05 -1.17,-1.3 -2.68,-1.95 -4.54,-1.95 -1.76,0 -3.23,0.66 -4.41,1.97 -1.17,1.33 -1.75,2.97 -1.75,4.92 z"
           id="path67"
           style="fill:#000000;fill-opacity:1" />
        <path
           class="cls-2"
           d="m 439.94,304.92 c 0,-0.88 0.33,-1.64 0.98,-2.28 0.65,-0.64 1.43,-0.96 2.34,-0.96 0.91,0 1.71,0.32 2.36,0.96 0.65,0.63 0.98,1.39 0.98,2.3 0,0.91 -0.33,1.68 -0.98,2.33 -0.64,0.64 -1.42,0.96 -2.34,0.96 -0.92,0 -1.71,-0.32 -2.36,-0.96 -0.65,-0.64 -0.98,-1.42 -0.98,-2.35 z m 5.88,9.06 v 21.78 h -5.11 v -21.78 z"
           id="path68"
           style="fill:#000000;fill-opacity:1" />
        <path
           class="cls-2"
           d="m 468.6,313.98 h 5.13 v 21.78 h -5.13 v -2.28 c -2.11,1.94 -4.37,2.91 -6.79,2.91 -3.06,0 -5.59,-1.09 -7.59,-3.26 -1.98,-2.22 -2.97,-4.99 -2.97,-8.32 0,-3.33 0.99,-5.99 2.97,-8.16 1.98,-2.18 4.47,-3.26 7.45,-3.26 2.57,0 4.88,1.04 6.93,3.13 v -2.53 z m -12.13,10.82 c 0,2.09 0.57,3.79 1.7,5.1 1.17,1.33 2.63,1.99 4.41,1.99 1.89,0 3.42,-0.64 4.59,-1.92 1.17,-1.33 1.75,-3.01 1.75,-5.05 0,-2.04 -0.58,-3.73 -1.75,-5.05 -1.17,-1.3 -2.68,-1.95 -4.54,-1.95 -1.76,0 -3.23,0.66 -4.41,1.97 -1.17,1.33 -1.75,2.97 -1.75,4.92 z"
           id="path69"
           style="fill:#000000;fill-opacity:1" />
        <path
           class="cls-2"
           d="m 480.19,313.98 h 5.13 v 2.01 c 1.79,-1.74 3.8,-2.62 6.04,-2.62 2.57,0 4.58,0.8 6.02,2.39 1.24,1.36 1.86,3.57 1.86,6.64 v 13.35 h -5.13 v -12.16 c 0,-2.15 -0.3,-3.63 -0.91,-4.45 -0.59,-0.83 -1.67,-1.25 -3.23,-1.25 -1.7,0 -2.9,0.55 -3.61,1.65 -0.7,1.09 -1.05,2.99 -1.05,5.7 v 10.51 h -5.13 v -21.78 z"
           id="path70"
           style="fill:#000000;fill-opacity:1" />
        <path
           class="cls-2"
           d="m 510.96,318.67 v 17.08 h -5.11 v -17.08 h -2.18 v -4.7 h 2.18 v -7.98 h 5.11 v 7.98 h 3.97 v 4.7 z"
           id="path71"
           style="fill:#000000;fill-opacity:1" />
        <path
           class="cls-2"
           d="m 531.27,317.69 -4.22,2.21 c -0.67,-1.34 -1.49,-2.01 -2.48,-2.01 -0.47,0 -0.87,0.15 -1.2,0.46 -0.33,0.31 -0.5,0.7 -0.5,1.17 0,0.83 0.98,1.66 2.95,2.48 2.71,1.15 4.53,2.21 5.47,3.18 0.94,0.97 1.41,2.27 1.41,3.91 0,2.1 -0.79,3.86 -2.36,5.28 -1.53,1.34 -3.38,2.01 -5.54,2.01 -3.71,0 -6.34,-1.78 -7.88,-5.34 l 4.36,-1.99 c 0.61,1.04 1.07,1.71 1.39,1.99 0.62,0.57 1.36,0.85 2.23,0.85 1.73,0 2.59,-0.78 2.59,-2.33 0,-0.89 -0.67,-1.73 -2,-2.5 -0.52,-0.25 -1.03,-0.5 -1.54,-0.74 -0.51,-0.24 -1.04,-0.48 -1.57,-0.74 -1.48,-0.72 -2.53,-1.43 -3.13,-2.15 -0.77,-0.91 -1.16,-2.08 -1.16,-3.51 0,-1.89 0.66,-3.46 1.98,-4.7 1.35,-1.24 2.98,-1.86 4.91,-1.86 2.83,0 4.94,1.44 6.31,4.32 z"
           id="path72"
           style="fill:#000000;fill-opacity:1" />
      </g>
    </g>
  </g>
</svg>
